<mxfile host="Electron" modified="2024-07-26T21:18:34.735Z" agent="Mozilla/5.0 (X11; Linux x86_64) AppleWebKit/537.36 (KHTML, like Gecko) draw.io/24.6.4 Chrome/124.0.6367.207 Electron/30.0.6 Safari/537.36" etag="TLQrxEuuHEp0Pp51uT0T" version="24.6.4" type="device">
  <diagram name="Page-1" id="uTn-evIf6Q-hgHV7F_A3">
    <mxGraphModel dx="1688" dy="703" grid="1" gridSize="10" guides="1" tooltips="1" connect="1" arrows="1" fold="1" page="1" pageScale="1" pageWidth="850" pageHeight="1100" math="0" shadow="0">
      <root>
        <mxCell id="0" />
        <mxCell id="1" parent="0" />
        <mxCell id="UyPC5gKtdMc87XSLSW9K-4" value="" style="html=1;shape=mxgraph.basic.isocube;isoAngle=15;fillColor=#6d8764;fontColor=#ffffff;strokeColor=#3A5431;" vertex="1" parent="1">
          <mxGeometry x="260" y="610" width="100" height="60" as="geometry" />
        </mxCell>
        <mxCell id="UyPC5gKtdMc87XSLSW9K-27" value="" style="html=1;shape=mxgraph.basic.isocube;isoAngle=15;fillColor=#e51400;fontColor=#ffffff;strokeColor=#B20000;" vertex="1" parent="1">
          <mxGeometry x="260" y="590" width="100" height="60" as="geometry" />
        </mxCell>
        <mxCell id="UyPC5gKtdMc87XSLSW9K-28" value="" style="html=1;shape=mxgraph.basic.isocube;isoAngle=15;fillColor=#f0a30a;fontColor=#000000;strokeColor=#BD7000;" vertex="1" parent="1">
          <mxGeometry x="260" y="570" width="100" height="60" as="geometry" />
        </mxCell>
        <mxCell id="UyPC5gKtdMc87XSLSW9K-29" value="" style="html=1;shape=mxgraph.basic.isocube;isoAngle=15;fillColor=#76608a;fontColor=#ffffff;strokeColor=#432D57;" vertex="1" parent="1">
          <mxGeometry x="260" y="550" width="100" height="60" as="geometry" />
        </mxCell>
      </root>
    </mxGraphModel>
  </diagram>
</mxfile>